<svg width="28" height="28" viewBox="0 0 28 28" fill="none" xmlns="http://www.w3.org/2000/svg">
<path d="M8.16666 6.99996C8.47608 6.99996 8.77282 6.87704 8.99161 6.65825C9.21041 6.43946 9.33332 6.14271 9.33332 5.83329C9.33332 5.52387 9.21041 5.22713 8.99161 5.00833C8.77282 4.78954 8.47608 4.66663 8.16666 4.66663H5.83332C5.5239 4.66663 5.22716 4.78954 5.00837 5.00833C4.78957 5.22713 4.66666 5.52387 4.66666 5.83329V22.1666C4.66666 22.476 4.78957 22.7728 5.00837 22.9916C5.22716 23.2104 5.5239 23.3333 5.83332 23.3333H8.16666C8.47608 23.3333 8.77282 23.2104 8.99161 22.9916C9.21041 22.7728 9.33332 22.476 9.33332 22.1666C9.33332 21.8572 9.21041 21.5605 8.99161 21.3417C8.77282 21.1229 8.47608 21 8.16666 21H6.99999V6.99996H8.16666ZM24.29 13.3233L21 8.65663C20.8216 8.40511 20.5508 8.23446 20.2469 8.18199C19.9431 8.12952 19.6308 8.1995 19.3783 8.37663C19.2521 8.46504 19.1447 8.57758 19.0623 8.70773C18.9798 8.83789 18.924 8.98308 18.8979 9.13494C18.8719 9.2868 18.8762 9.44231 18.9106 9.59249C18.945 9.74268 19.0088 9.88456 19.0983 10.01L21.105 12.8333H11.6667C11.3572 12.8333 11.0605 12.9562 10.8417 13.175C10.6229 13.3938 10.5 13.6905 10.5 14C10.5 14.3094 10.6229 14.6061 10.8417 14.8249C11.0605 15.0437 11.3572 15.1666 11.6667 15.1666H21L18.9 17.9666C18.8081 18.0892 18.7412 18.2287 18.7032 18.3771C18.6651 18.5255 18.6567 18.6799 18.6784 18.8316C18.7 18.9833 18.7514 19.1292 18.8294 19.261C18.9075 19.3929 19.0108 19.508 19.1333 19.6C19.3353 19.7514 19.5809 19.8333 19.8333 19.8333C20.0144 19.8333 20.1931 19.7911 20.3551 19.7101C20.5171 19.6291 20.658 19.5115 20.7667 19.3666L24.2667 14.7C24.4161 14.5026 24.4989 14.2629 24.5031 14.0154C24.5073 13.768 24.4326 13.5256 24.29 13.3233Z" fill="#364670"/>
</svg>
